<?xml version="1.0" encoding="UTF-8" standalone="no"?>
<!-- Created with Inkscape (http://www.inkscape.org/) -->
<svg
   xmlns="http://www.w3.org/2000/svg"
   id="svg2211"
   width="500"
   height="500">
  <defs
     id="defs2214" />
  <path
     style="fill:#000000;fill-opacity:1;fill-rule:evenodd;stroke:#000000;stroke-width:1px;stroke-linecap:butt;stroke-linejoin:miter;stroke-opacity:1"
     d="M 82.424234,133.63857 C 82.424234,133.63857 99.399275,145.43758 123.12973,132.33243 C 122.96395,132.33243 166.59665,111.71506 166.59665,111.71506 L 173.22449,111.71506 C 173.22449,111.71506 91.376494,257.14653 88.723974,319.14918 C 89.055544,318.81762 79.440154,397.39852 149.40037,412.98207 C 149.06881,413.31364 173.27305,419.94494 208.7505,409.33486 C 209.08206,409.33486 276.38975,392.42504 299.5993,302.23937 C 299.57919,302.2997 313.19347,262.78313 318.83007,178.89719 C 319.16164,180.22345 324.13511,114.57358 324.13511,114.57358 L 329.44015,114.57358 C 329.44015,114.57358 334.29176,172.25519 381.6533,245.97043 C 381.6533,245.97043 401.94197,277.18063 404.52094,276.94618 C 404.52094,276.94618 409.32863,284.54373 416.45728,277.41508 C 415.98838,278.49022 430.89904,269.746 420.62052,253.49931 C 420.62052,253.49931 382.82211,216.36404 355.30222,152.70356 C 354.97066,152.37199 336.40302,104.29508 336.40302,99.653166 C 336.73458,99.321606 322.47729,87.053696 318.49851,86.390566 C 319.16164,86.722126 312.19877,80.422396 311.86721,90.037776 C 311.86721,92.027176 305.34623,210.2183 297.55303,238.93057 C 297.68573,239.08178 276.38975,353.96351 220.35527,382.14653 C 220.60984,382.36086 168.96271,409.99798 124.20142,380.15714 C 124.27842,380.17725 109.42122,368.4951 105.30222,348.99003 C 105.28212,349.08715 98.505142,324.12266 106.29692,296.2712 C 106.62848,296.2712 129.50646,219.01656 171.61523,154.02982 C 171.94679,153.69825 201.2653,108.3543 206.62377,106.38157 C 206.78122,106.16724 219.0859,100.27607 205.76641,96.337521 L 187.8619,88.711516 C 187.8619,88.711516 183.21999,83.406476 171.94679,92.027176 C 171.61523,93.353436 109.94413,122.53114 109.94413,122.53114 C 109.94413,122.53114 86.403014,129.49401 76.124504,128.83088 C 76.124504,128.99666 73.471984,130.15714 82.424234,133.63857 z "
     id="path2224"/>
</svg>
